<?xml version="1.0" standalone="no"?>
<!DOCTYPE svg PUBLIC "-//W3C//DTD SVG 20010904//EN"
 "http://www.w3.org/TR/2001/REC-SVG-20010904/DTD/svg10.dtd">
<svg version="1.0" xmlns="http://www.w3.org/2000/svg"
 width="448.000000pt" height="448.000000pt" viewBox="0 0 448.000000 448.000000"
 preserveAspectRatio="xMidYMid meet">
<metadata>
Created by potrace 1.14, written by Peter Selinger 2001-2017
</metadata>
<g transform="translate(0.000000,448.000000) scale(0.100000,-0.100000)"
fill="#000000" stroke="none">
<path d="M0 2240 l0 -2240 2240 0 2240 0 0 2240 0 2240 -2240 0 -2240 0 0
-2240z m1080 2105 c118 -20 162 -30 187 -43 12 -7 31 -12 42 -12 12 0 29 -4
39 -10 9 -5 49 -20 89 -34 98 -34 231 -103 331 -170 46 -31 87 -56 91 -56 4 0
26 -16 48 -35 23 -19 48 -35 56 -35 8 0 25 -10 39 -22 13 -13 52 -47 86 -77
34 -30 62 -58 62 -62 0 -4 -15 -10 -32 -14 -18 -4 -52 -16 -76 -27 -38 -18
-45 -18 -64 -6 -18 12 -22 23 -19 60 2 42 0 46 -26 53 -15 3 -61 29 -102 56
-41 27 -81 49 -90 49 -9 0 -27 9 -41 20 -14 11 -30 20 -36 20 -10 0 -100 40
-136 60 -10 6 -27 10 -37 10 -11 0 -22 4 -25 9 -3 4 -34 18 -68 31 -35 12 -79
29 -98 38 -19 9 -57 19 -85 23 -49 7 -116 22 -185 40 -55 14 -95 15 -95 2 0
-6 12 -25 28 -42 15 -17 35 -48 43 -69 9 -20 20 -45 25 -54 5 -10 9 -54 9 -98
0 -81 -6 -102 -57 -204 -17 -35 -23 -58 -19 -79 5 -23 0 -38 -19 -63 -14 -18
-25 -40 -25 -49 0 -14 -7 -16 -42 -11 -24 4 -68 10 -98 14 -63 8 -75 27 -40
64 31 33 94 126 116 173 23 48 27 226 6 247 -6 6 -12 19 -12 28 0 23 -76 99
-141 143 -59 39 -133 64 -244 80 -66 10 -93 24 -77 38 4 4 39 10 77 14 39 3
106 10 150 15 105 11 358 3 465 -15z m1110 -151 c68 -14 129 -29 135 -33 5 -4
48 -16 95 -25 47 -9 94 -21 105 -25 61 -25 154 -54 183 -59 27 -4 32 -1 32 17
0 12 -5 30 -12 41 -27 43 17 37 79 -10 45 -35 40 -30 108 -105 31 -33 83 -100
118 -149 72 -104 91 -124 144 -151 21 -11 61 -34 90 -52 29 -18 56 -33 62 -33
15 0 84 -71 114 -117 27 -43 166 -138 217 -149 32 -7 99 -40 125 -62 72 -61
64 -231 -12 -280 -22 -14 -23 -14 -23 25 0 46 -39 91 -80 93 -14 0 -41 1 -60
2 -19 0 -40 7 -46 16 -7 10 -19 13 -37 8 -20 -5 -27 -3 -27 9 0 25 -52 18 -83
-11 -31 -28 -47 -24 -47 12 0 34 -31 31 -75 -7 l-35 -31 -17 30 c-41 72 -123
94 -161 42 -12 -16 -22 -36 -22 -45 0 -22 -36 -19 -60 5 -11 11 -20 24 -20 29
0 16 -63 71 -82 71 -9 0 -33 -7 -52 -16 -31 -15 -36 -15 -66 0 -18 9 -43 16
-55 16 -13 0 -38 7 -57 15 -34 14 -35 16 -40 82 -7 92 -64 187 -143 239 -25
17 -32 42 -16 60 22 23 51 87 51 114 0 40 -34 98 -81 139 -21 19 -39 38 -39
43 0 10 33 11 46 0 5 -4 36 -16 69 -27 33 -10 64 -22 69 -27 6 -4 19 -8 30 -8
19 0 17 3 -9 24 -16 14 -41 31 -55 38 -14 7 -48 26 -75 44 -42 26 -170 89
-250 124 -86 37 -128 54 -180 71 -33 11 -67 27 -75 35 -13 13 -9 14 40 9 30
-4 111 -18 180 -31z m249 -486 c-7 -13 -23 -37 -36 -54 -28 -38 -29 -72 -3
-117 l20 -34 -23 -16 c-23 -15 -120 -109 -143 -139 -8 -10 -10 -46 -6 -109 4
-85 7 -97 33 -127 16 -18 29 -39 29 -46 0 -28 79 -103 127 -120 26 -10 57 -21
68 -26 102 -44 168 -64 265 -80 36 -7 79 -15 95 -20 17 -5 77 -16 135 -26 114
-18 235 -67 257 -103 12 -19 10 -21 -15 -27 -81 -18 -185 -82 -202 -125 -7
-16 -16 -29 -21 -29 -16 0 -49 44 -62 84 -8 25 -23 46 -38 53 -43 20 -175 46
-319 62 -41 4 -91 16 -110 26 -19 11 -41 18 -48 17 -7 -2 -25 6 -41 18 -16 11
-41 20 -55 20 -20 0 -24 4 -19 17 5 12 3 14 -7 8 -10 -6 -12 -4 -7 8 4 11 -1
20 -13 27 -20 11 -27 44 -11 54 17 11 21 68 6 97 -8 16 -22 42 -30 58 -8 16
-15 37 -15 48 0 15 -2 16 -10 3 -5 -8 -10 -26 -10 -39 0 -13 -7 -29 -16 -36
-25 -18 -11 -69 16 -62 13 3 20 0 20 -9 0 -8 -5 -14 -11 -14 -6 0 -8 -9 -4
-20 4 -13 1 -22 -8 -26 -8 -3 -17 -14 -20 -25 -7 -27 -21 -24 -60 16 -37 38
-55 102 -38 134 7 12 6 22 -1 29 -19 19 -38 14 -50 -13 -6 -14 -15 -25 -19
-25 -12 0 -49 89 -43 103 2 7 -2 30 -11 50 -15 37 -8 77 15 77 5 0 -1 12 -14
26 -13 15 -30 34 -39 44 -13 16 -20 16 -63 5 -84 -22 -101 -33 -132 -77 -17
-25 -37 -50 -46 -57 -9 -8 -16 -20 -16 -27 0 -8 -20 -59 -45 -114 -25 -55 -45
-112 -45 -128 -1 -58 -9 -60 -201 -61 -97 0 -188 -5 -203 -11 -15 -5 -44 -10
-64 -10 -20 0 -46 -7 -56 -15 -11 -8 -27 -15 -36 -15 -9 0 -40 -11 -68 -25
-29 -14 -58 -25 -66 -25 -13 0 -94 -36 -141 -62 -11 -7 -31 -17 -45 -24 -14
-7 -35 -22 -47 -34 -12 -11 -26 -20 -32 -20 -17 0 -132 -124 -147 -159 -9 -20
-20 -45 -26 -57 -9 -20 -7 -96 8 -226 3 -32 2 -58 -3 -58 -5 0 -17 -23 -28
-50 -11 -28 -24 -49 -30 -47 -5 2 -24 25 -42 51 -31 46 -33 46 -39 22 -8 -32
8 -80 46 -140 34 -53 36 -76 14 -151 -14 -49 -14 -57 0 -84 20 -37 20 -41 1
-41 -14 0 -87 67 -130 120 -29 36 -72 126 -92 195 -25 88 -24 262 2 335 11 30
24 60 30 67 5 6 21 28 35 48 14 19 59 61 100 93 41 31 77 60 80 63 3 3 10 8
15 10 24 9 141 87 191 127 30 23 57 42 60 42 8 0 261 258 294 301 l26 33 19
-21 c11 -12 29 -22 40 -25 12 -2 21 -13 24 -28 1 -14 14 -36 27 -49 13 -13 24
-29 24 -36 0 -8 9 -10 25 -7 14 2 25 8 25 13 0 5 7 9 15 9 8 0 15 6 15 14 0
21 34 29 134 30 l89 1 46 75 c60 99 100 150 117 150 8 0 18 10 23 23 22 55
148 157 196 157 8 0 15 4 15 8 0 12 62 32 102 32 45 0 59 33 27 63 -19 17 -19
21 -5 36 9 10 16 23 16 29 0 6 9 20 21 31 19 18 24 18 55 5 38 -16 124 -19
124 -4 0 6 7 10 15 10 7 0 18 7 22 15 15 27 145 84 191 85 41 0 42 -1 31 -22z
m-517 -33 c9 -30 17 -125 11 -125 -2 0 -12 8 -23 18 -24 23 -40 65 -40 108 0
31 3 35 22 32 14 -2 25 -13 30 -33z m-866 -102 c28 -33 99 -138 112 -166 18
-42 16 -251 -3 -267 -8 -7 -15 -18 -15 -26 0 -17 -52 -2 -79 23 -24 22 -28
115 -6 133 13 11 12 16 -5 37 -11 14 -20 37 -20 52 0 14 -11 47 -23 72 l-23
47 24 21 c23 20 23 23 8 46 -9 13 -16 29 -16 35 0 16 29 12 46 -7z m-99 -49
c-3 -3 -12 -4 -19 -1 -8 3 -5 6 6 6 11 1 17 -2 13 -5z m1588 -76 c15 -22 30
-58 32 -79 5 -33 2 -39 -24 -52 -16 -9 -35 -27 -43 -42 -12 -23 -12 -29 5 -58
22 -37 46 -57 95 -75 74 -28 109 -35 215 -42 119 -8 234 -27 250 -41 5 -5 22
-9 37 -9 16 0 36 -4 46 -9 9 -5 37 -17 62 -26 72 -29 182 -85 217 -111 17 -13
35 -24 40 -24 4 0 13 -8 20 -18 9 -15 6 -28 -13 -67 -12 -27 -21 -52 -18 -57
10 -16 25 -7 45 27 18 30 26 35 59 35 29 0 52 -10 101 -47 89 -65 150 -124
147 -141 -4 -21 -67 -52 -107 -52 -31 0 -100 -39 -109 -62 -6 -12 -32 -9 -32
3 0 11 -49 75 -97 127 -13 14 -23 28 -23 32 0 4 -13 13 -30 20 -16 7 -30 16
-30 21 0 5 -6 9 -14 9 -8 0 -16 3 -18 8 -4 10 -170 92 -186 92 -7 0 -20 4 -30
9 -35 19 -240 61 -298 61 -60 0 -228 30 -240 43 -4 4 -16 7 -26 7 -35 0 -125
52 -177 101 -56 54 -69 78 -73 139 -1 22 -6 40 -10 40 -12 0 -10 128 2 135 6
3 10 13 10 22 0 18 63 81 105 105 52 29 79 23 110 -24z m1634 -497 c31 -8 39
-29 14 -37 -52 -16 -83 -38 -83 -60 0 -12 6 -25 13 -28 8 -3 3 -12 -16 -26
-36 -28 -27 -40 32 -40 37 0 54 -6 75 -25 14 -13 26 -29 26 -34 0 -6 18 -15
40 -21 55 -15 70 -33 70 -86 0 -59 -19 -66 -65 -21 -46 44 -106 54 -147 23
-36 -26 -35 -34 5 -51 67 -28 85 -70 57 -133 -37 -82 -70 -102 -70 -41 0 19
-10 41 -29 61 -38 41 -115 51 -170 22 -36 -19 -111 -89 -111 -103 0 -17 -56
-69 -80 -76 -79 -21 -120 -62 -120 -119 0 -14 -5 -28 -11 -31 -30 -19 -120
-31 -181 -25 -97 10 -153 53 -203 155 -16 34 -34 56 -48 60 -80 23 -122 75
-121 151 1 84 77 133 221 142 78 5 84 3 120 -23 54 -40 70 -63 89 -125 10 -30
22 -61 27 -67 11 -15 -8 -43 -29 -43 -8 0 -19 -11 -26 -25 -9 -19 -8 -29 6
-49 17 -26 57 -43 75 -31 21 12 61 113 61 152 0 50 34 85 110 109 65 21 87 32
120 59 33 27 110 121 110 134 0 15 29 103 40 123 6 10 10 31 10 46 0 64 101
108 189 83z m-2354 -246 c159 -27 212 -39 260 -61 17 -7 53 -18 80 -24 51 -11
89 -36 79 -51 -3 -5 15 -9 39 -9 48 0 63 -15 51 -53 -10 -32 -57 -67 -72 -55
-7 6 -16 8 -19 4 -4 -4 -2 -11 5 -15 9 -5 4 -12 -15 -21 l-28 -13 30 -6 c17
-4 45 -5 63 -2 27 3 34 8 39 32 3 16 9 29 13 29 4 0 5 -11 2 -25 -5 -27 6 -33
26 -13 8 8 9 15 1 25 -9 9 -8 17 1 28 9 10 9 15 1 15 -6 0 -11 7 -11 15 0 8 8
15 19 15 10 0 24 -7 31 -15 7 -8 22 -15 33 -15 11 0 28 -6 36 -13 9 -8 32 -20
51 -27 19 -7 42 -19 50 -26 8 -6 58 -33 110 -59 52 -26 116 -58 141 -71 26
-13 58 -24 72 -24 14 0 29 -4 32 -10 3 -5 24 -9 46 -8 32 1 41 6 45 24 16 62
89 22 135 -74 18 -37 49 -82 71 -102 39 -34 39 -35 16 -41 -33 -9 -370 2 -390
12 -9 5 -28 9 -42 9 -15 0 -30 8 -36 20 -8 14 -21 20 -43 20 -48 -1 -97 10
-144 31 -24 10 -45 19 -48 19 -2 0 -33 17 -68 39 -34 21 -84 48 -110 59 -25
11 -59 33 -73 47 -15 15 -43 29 -63 32 -20 4 -53 17 -73 30 -21 12 -42 23 -47
23 -5 0 -14 6 -20 14 -6 7 -34 16 -62 19 -28 4 -62 13 -75 22 -13 8 -40 15
-59 15 -20 0 -44 4 -54 9 -20 11 -202 23 -311 21 -84 -1 -132 -7 -167 -21 -52
-19 -63 -13 -63 36 0 25 5 54 12 64 13 22 5 51 -16 51 -7 0 -17 -11 -20 -25
-6 -25 -7 -25 -34 -8 -15 10 -31 23 -35 30 -11 19 -38 16 -67 -7 l-25 -20 26
-46 c18 -35 38 -54 77 -75 49 -26 50 -27 25 -34 -15 -3 -45 -15 -67 -26 -22
-10 -50 -19 -62 -19 -12 0 -29 -7 -38 -15 -8 -8 -17 -15 -21 -15 -10 0 -83
-60 -128 -105 -127 -127 -187 -271 -187 -447 0 -88 4 -113 37 -228 63 -221
154 -372 330 -546 127 -128 141 -137 313 -205 47 -19 91 -40 98 -46 7 -7 18
-13 23 -13 14 0 -1 -53 -19 -67 -12 -10 -19 -10 -31 0 -34 26 -57 33 -83 26
-22 -6 -30 -3 -43 18 -9 13 -31 31 -49 38 -18 8 -44 25 -57 39 -13 14 -31 26
-40 26 -14 0 -16 -11 -12 -77 3 -42 2 -92 -2 -110 -5 -28 -10 -33 -34 -33 -16
0 -34 7 -41 15 -7 8 -19 15 -26 15 -20 0 -84 42 -113 74 -14 14 -29 26 -35 26
-20 0 -246 206 -246 223 0 6 -17 29 -37 52 -90 99 -182 242 -183 283 0 6 -4
12 -10 12 -5 0 -10 6 -10 14 0 7 -7 27 -15 42 -8 16 -15 41 -15 56 0 15 -4 29
-9 32 -14 9 -21 183 -11 296 15 188 36 268 105 404 48 95 83 142 170 229 91
90 143 129 246 180 90 45 96 47 132 35 34 -10 40 -10 48 5 6 9 18 17 28 17 11
0 21 7 25 15 3 8 16 15 29 15 13 0 28 5 34 11 6 6 29 13 50 16 21 2 65 7 98
12 122 17 274 12 430 -14z m-625 -105 c0 -5 -4 -10 -9 -10 -6 0 -13 5 -16 10
-3 6 1 10 9 10 9 0 16 -4 16 -10z m468 -226 c20 -14 22 -14 22 1 0 14 10 15
68 12 118 -8 185 -24 204 -49 22 -29 22 -34 2 -42 -21 -8 -34 1 -34 25 0 22
-29 26 -48 7 -9 -9 -12 -9 -12 0 0 7 -4 12 -10 12 -18 0 -10 -22 10 -27 11 -3
20 -12 20 -19 0 -8 5 -15 10 -15 6 -1 14 -2 18 -3 5 0 16 -9 26 -18 18 -19 46
-14 46 8 0 16 31 7 43 -13 13 -22 46 2 40 28 -6 21 -4 22 43 15 34 -4 57 -15
76 -34 l28 -27 -30 -74 c-17 -40 -30 -79 -30 -87 0 -17 -30 -19 -31 -1 -1 6
-1 20 0 30 1 9 -3 17 -8 17 -6 0 -11 -6 -11 -14 0 -21 -32 -25 -55 -7 -19 16
-19 15 -2 -11 19 -31 22 -73 6 -83 -5 -4 -21 5 -34 19 -22 23 -25 24 -39 10
-9 -8 -16 -12 -16 -7 0 31 -371 47 -447 19 -21 -7 -71 -24 -111 -37 -63 -20
-81 -31 -123 -77 -43 -47 -59 -73 -89 -147 -28 -68 -28 -259 1 -290 5 -5 9
-15 9 -22 0 -47 145 -219 215 -255 22 -11 42 -24 45 -28 6 -8 49 -31 105 -55
128 -57 215 -109 215 -130 0 -6 16 -24 35 -39 40 -32 46 -69 15 -86 -11 -6
-22 -21 -26 -34 -4 -16 -14 -25 -33 -28 -35 -5 -182 19 -195 32 -6 6 -18 10
-28 10 -11 0 -45 14 -77 30 -47 25 -58 35 -54 50 3 11 9 20 14 20 5 0 9 9 9
20 0 16 -5 19 -22 16 -13 -3 -44 -8 -70 -11 -40 -5 -47 -3 -53 14 -3 10 -17
22 -31 25 -35 9 -192 166 -254 255 -43 61 -104 177 -140 266 -37 89 -36 367 1
435 4 8 16 33 26 55 20 46 20 46 69 103 43 50 96 89 179 132 33 17 64 35 69
41 6 5 26 9 46 9 20 0 40 4 45 9 19 17 141 34 221 32 66 -2 82 0 87 13 8 20
17 20 45 0z m2276 -81 c9 -26 16 -63 16 -82 -1 -90 -51 -231 -101 -284 l-19
-21 0 22 c0 12 -4 22 -10 22 -5 0 -9 -18 -8 -40 1 -33 -3 -44 -23 -58 -13 -9
-28 -17 -33 -17 -5 0 -22 -12 -37 -27 -15 -16 -34 -26 -42 -22 -11 4 -13 -1
-10 -20 4 -20 -2 -29 -38 -52 -90 -57 -127 -68 -284 -90 -22 -4 -44 -10 -49
-15 -6 -5 -26 -9 -45 -9 l-36 0 33 26 c19 15 38 38 43 52 10 25 10 25 24 5 17
-24 23 -23 79 1 21 10 55 23 75 29 32 11 36 16 39 51 l3 38 -29 -21 c-17 -11
-34 -21 -39 -21 -6 0 -23 -11 -39 -25 -30 -26 -54 -32 -54 -15 0 23 -30 19
-73 -9 -25 -17 -49 -31 -53 -31 -14 -1 -70 -54 -77 -72 -6 -16 -21 -18 -116
-18 -83 0 -119 4 -146 17 -38 18 -43 28 -20 37 8 3 15 12 15 20 0 21 -68 15
-85 -7 -15 -21 -73 -23 -81 -2 -7 17 -40 20 -49 5 -13 -21 -34 2 -31 36 3 38
-8 44 -24 14 -7 -14 -7 -20 0 -20 5 0 10 -4 10 -10 0 -5 -11 -10 -24 -10 -14
0 -28 5 -31 10 -3 6 -14 10 -23 10 -10 0 -38 11 -64 25 -26 14 -54 25 -63 25
-8 0 -15 4 -15 10 0 5 -18 19 -40 30 -39 20 -51 42 -30 55 6 3 10 -1 10 -9 0
-10 9 -16 24 -16 13 0 27 -6 29 -12 3 -8 6 -7 6 4 1 9 -4 20 -10 24 -6 3 -9
17 -6 30 2 14 0 27 -4 30 -5 3 -9 -1 -9 -9 0 -8 -9 -17 -20 -20 -19 -5 -20 -2
-14 41 15 118 8 182 -20 182 -9 0 -19 14 -24 32 -4 18 -15 33 -23 34 -36 2
-37 5 -35 44 2 22 6 43 9 46 9 10 75 -16 81 -31 3 -8 14 -15 25 -15 10 0 21
-9 24 -20 5 -18 8 -19 31 -9 22 11 28 10 39 -5 7 -10 17 -16 23 -14 5 2 32 -8
59 -21 28 -14 59 -28 70 -32 61 -22 131 -52 140 -60 10 -10 11 -14 13 -62 2
-19 9 -30 24 -36 19 -7 27 -3 45 22 26 36 43 48 56 40 18 -11 145 -34 217 -39
42 -3 95 0 120 6 25 6 63 15 86 20 50 11 163 48 188 61 13 7 22 7 29 0 14 -14
60 -14 92 1 14 6 33 28 42 47 19 41 76 101 95 101 7 0 46 34 87 75 40 41 77
75 81 75 5 0 15 -21 24 -47z m-1764 -345 c34 -37 23 -51 -18 -22 -22 15 -30
44 -12 44 5 0 18 -10 30 -22z m255 -288 c10 -11 24 -20 31 -20 26 0 24 -19 -4
-39 -18 -12 -37 -18 -50 -14 -19 5 -21 10 -15 46 5 35 4 39 -10 34 -10 -4 -17
-2 -17 3 0 18 47 10 65 -10z m1232 -47 c-6 -60 -25 -135 -38 -147 -5 -6 -9
-17 -9 -25 0 -22 -113 -243 -147 -288 -50 -67 -57 -75 -123 -145 -59 -64 -65
-68 -72 -47 -7 18 -13 20 -41 15 -49 -10 -50 -10 -74 -2 -21 7 -22 5 -16 -26
3 -18 10 -35 15 -36 4 -2 15 -11 24 -19 13 -14 12 -19 -18 -47 -34 -34 -217
-159 -278 -190 -102 -53 -134 -67 -147 -62 -8 3 -23 -3 -34 -13 -12 -11 -42
-21 -80 -24 -33 -4 -73 -14 -89 -22 -32 -17 -35 -15 -21 13 5 9 12 25 15 35 6
17 8 17 37 -3 16 -12 33 -20 36 -17 8 8 -7 28 -17 22 -4 -3 -10 3 -13 13 -2 9
-8 25 -12 36 -7 17 -6 17 15 6 21 -11 26 -10 38 9 8 11 20 21 27 21 7 0 16 11
19 25 4 14 11 25 16 25 6 0 6 10 -1 26 -11 31 -5 42 14 26 11 -9 22 -2 52 33
21 25 40 43 42 41 7 -7 63 15 63 25 0 5 7 9 16 9 9 0 30 12 48 26 17 14 63 46
101 71 39 25 91 65 116 87 25 23 54 48 65 57 22 18 67 73 107 132 15 23 32 44
36 47 4 3 20 24 34 47 14 23 31 44 37 48 5 3 19 26 30 50 11 24 26 48 34 52 8
4 18 24 23 43 7 26 19 41 49 57 21 12 44 25 49 30 12 10 57 31 68 32 5 1 7
-20 4 -46z m-1519 -63 c20 -16 44 -28 52 -27 27 4 41 18 35 36 -4 14 0 18 17
17 42 -2 33 -74 -16 -118 -29 -27 -39 -23 -95 35 -74 76 -68 118 7 57z m62 18
c0 -7 -4 -19 -9 -27 -11 -17 -25 3 -17 24 7 18 26 20 26 3z m433 -4 c9 -3 13
-13 10 -25 -5 -19 -2 -20 31 -14 36 7 36 7 36 -28 0 -30 -5 -37 -35 -51 -19
-9 -37 -21 -40 -26 -10 -16 -162 -77 -166 -67 0 1 -2 19 -4 39 -4 33 1 42 41
83 25 25 50 45 55 45 4 0 16 11 25 25 17 26 23 29 47 19z m731 -51 c-9 -51
-77 -187 -110 -220 -8 -8 -27 -31 -42 -51 -15 -21 -36 -45 -47 -55 -11 -10
-36 -33 -55 -51 -19 -18 -60 -49 -90 -69 -30 -20 -60 -41 -67 -47 -7 -5 -29
-17 -50 -26 -21 -9 -55 -25 -76 -35 -22 -11 -43 -17 -48 -14 -5 3 -22 -4 -38
-16 -17 -12 -38 -23 -48 -24 -10 0 -24 -5 -32 -9 -7 -5 -17 -4 -24 3 -14 14 7
61 28 61 11 0 14 7 10 28 -3 15 -2 21 1 15 9 -21 23 -15 59 22 19 19 58 48 87
64 29 17 60 40 68 52 37 53 53 69 102 103 29 20 66 47 82 60 28 23 29 27 17
50 -12 21 -11 28 8 55 12 17 29 31 36 31 15 0 30 35 20 49 -12 20 48 45 124
52 42 3 80 7 84 7 4 1 5 -15 1 -35z m-2006 18 c23 -12 200 -31 288 -31 96 0
136 -9 141 -32 3 -10 11 -18 18 -18 18 0 55 -48 55 -71 0 -13 -12 -22 -42 -30
-68 -18 -76 -19 -223 -24 -180 -6 -242 2 -267 35 -23 31 -77 162 -71 173 6 10
80 9 101 -2z m655 -8 c8 -10 16 -25 17 -33 4 -30 0 -85 -8 -98 -9 -14 -113
-34 -123 -24 -4 4 -9 31 -12 61 -6 50 -5 55 24 82 36 33 78 38 102 12z m797 3
c0 -3 -4 -8 -10 -11 -5 -3 -10 -1 -10 4 0 6 5 11 10 11 6 0 10 -2 10 -4z
m-960 -46 c0 -13 -7 -20 -20 -20 -13 0 -20 7 -20 20 0 13 7 20 20 20 13 0 20
-7 20 -20z m430 -124 c0 -32 3 -35 33 -38 28 -3 32 -7 32 -33 0 -26 -5 -30
-41 -40 -23 -5 -48 -15 -55 -21 -21 -17 -127 -54 -154 -54 -28 0 -29 8 -11 85
13 57 30 66 66 35 35 -31 60 -26 60 11 0 39 29 89 52 89 14 0 18 -8 18 -34z
m-220 -68 c0 -11 -61 -58 -75 -58 -9 0 -6 30 5 51 12 22 70 27 70 7z m-150
-33 c0 -9 11 -21 25 -27 35 -16 31 -26 -11 -34 -19 -4 -38 -12 -40 -19 -7 -17
-91 -27 -115 -15 -13 7 -24 7 -38 -2 -15 -9 -28 -8 -63 5 -24 9 -51 17 -61 17
-9 0 -25 4 -35 9 -9 5 -26 12 -37 16 -32 10 2 25 55 25 25 -1 65 4 90 9 25 6
68 11 95 11 28 1 59 5 70 10 33 14 65 12 65 -5z m294 -233 c8 -13 -45 -60 -76
-67 -16 -4 -28 -16 -32 -30 -3 -13 -14 -26 -25 -30 -10 -3 -32 -23 -49 -44
-32 -40 -82 -67 -106 -58 -11 4 -12 14 -6 43 9 38 4 64 -11 64 -12 0 -12 37 1
45 5 3 7 12 4 19 -8 21 67 32 78 12 10 -17 33 -11 60 16 14 14 27 17 52 12 22
-4 44 0 62 10 34 18 41 19 48 8z m211 -16 c15 -10 25 -26 24 -39 l0 -22 -9 23
c-8 19 -17 22 -58 22 -48 0 -81 18 -64 34 11 12 80 0 107 -18z m-759 -294
c-10 -10 -29 15 -21 28 6 9 10 8 17 -4 6 -10 7 -20 4 -24z m98 3 c18 -13 17
-14 -8 -20 -87 -18 -85 -19 -64 15 15 23 45 25 72 5z m102 -21 c-3 -9 -6 -20
-6 -25 0 -14 -51 -31 -69 -24 -12 5 -13 8 -3 14 8 4 15 17 17 27 2 10 4 20 4
22 1 1 15 2 32 2 24 0 30 -3 25 -16z m-213 -39 c-4 -15 -36 -12 -41 3 -3 9 3
13 19 10 13 -1 23 -7 22 -13z m-99 -155 c-7 -7 -44 39 -44 54 1 6 12 -2 25
-19 13 -16 22 -32 19 -35z m216 11 c0 -24 16 -36 26 -20 5 9 11 7 21 -6 22
-30 16 -35 -39 -34 -74 2 -87 15 -51 50 34 33 43 35 43 10z m535 -10 c-9 -16
-25 -3 -18 15 4 10 9 12 15 6 6 -6 7 -15 3 -21z m48 15 c6 -16 -2 -28 -14 -20
-12 7 -11 34 0 34 5 0 11 -6 14 -14z"/>
<path d="M3043 3534 c-7 -19 3 -30 58 -59 170 -91 249 -122 249 -97 0 16 -51
56 -83 67 -26 9 -32 15 -30 37 1 23 -5 28 -63 47 -77 25 -122 27 -131 5z"/>
<path d="M2000 3360 c6 -11 15 -20 20 -20 14 0 12 9 -4 26 -21 20 -28 17 -16
-6z"/>
<path d="M2022 3313 c2 -9 9 -18 16 -21 18 -6 15 25 -4 32 -11 4 -14 1 -12
-11z"/>
<path d="M2157 3106 c-4 -10 -5 -21 -2 -24 9 -9 17 6 13 25 -3 17 -4 17 -11
-1z"/>
<path d="M2191 3054 c0 -11 3 -14 6 -6 3 7 2 16 -1 19 -3 4 -6 -2 -5 -13z"/>
<path d="M1120 3302 c0 -9 6 -12 16 -8 9 3 21 6 26 6 19 0 -1 14 -22 15 -11 1
-20 -5 -20 -13z"/>
<path d="M1125 3255 c-3 -8 -7 -21 -9 -27 -2 -8 6 -14 20 -14 20 -2 24 3 24
27 0 31 -27 42 -35 14z"/>
<path d="M3560 2775 c0 -9 -10 -20 -22 -25 -15 -6 -17 -9 -7 -9 9 -1 23 7 32
17 19 21 22 32 7 32 -5 0 -10 -7 -10 -15z"/>
<path d="M2310 2330 c0 -5 4 -10 9 -10 6 0 13 5 16 10 3 6 -1 10 -9 10 -9 0
-16 -4 -16 -10z"/>
<path d="M3038 2224 c-4 -3 -14 -7 -25 -8 -32 -5 -27 -33 7 -38 23 -4 34 0 41
14 14 26 -5 51 -23 32z"/>
<path d="M1100 966 c0 -2 7 -6 15 -10 8 -3 15 -1 15 4 0 6 -7 10 -15 10 -8 0
-15 -2 -15 -4z"/>
<path d="M1140 819 c0 -5 5 -7 10 -4 6 3 10 8 10 11 0 2 -4 4 -10 4 -5 0 -10
-5 -10 -11z"/>
<path d="M2110 2240 c0 -5 5 -10 10 -10 6 0 10 5 10 10 0 6 -4 10 -10 10 -5 0
-10 -4 -10 -10z"/>
<path d="M1970 2066 c0 -9 5 -16 10 -16 6 0 10 4 10 9 0 6 -4 13 -10 16 -5 3
-10 -1 -10 -9z"/>
<path d="M2335 2170 c-3 -5 1 -10 10 -10 9 0 13 5 10 10 -3 6 -8 10 -10 10 -2
0 -7 -4 -10 -10z"/>
<path d="M3040 1873 c0 -5 7 -19 16 -31 9 -13 14 -34 11 -47 -2 -14 0 -22 4
-19 5 3 9 12 9 20 0 8 6 17 14 20 25 10 4 59 -27 62 -15 2 -27 0 -27 -5z"/>
<path d="M2701 704 c0 -11 3 -14 6 -6 3 7 2 16 -1 19 -3 4 -6 -2 -5 -13z"/>
<path d="M3270 1479 c0 -5 5 -7 10 -4 6 3 10 8 10 11 0 2 -4 4 -10 4 -5 0 -10
-5 -10 -11z"/>
<path d="M2260 1275 c0 -8 2 -15 4 -15 2 0 6 7 10 15 3 8 1 15 -4 15 -6 0 -10
-7 -10 -15z"/>
<path d="M2010 950 c0 -5 5 -10 10 -10 6 0 10 5 10 10 0 6 -4 10 -10 10 -5 0
-10 -4 -10 -10z"/>
<path d="M1940 889 c0 -5 5 -7 10 -4 6 3 10 8 10 11 0 2 -4 4 -10 4 -5 0 -10
-5 -10 -11z"/>
</g>
</svg>
